<?xml version="1.0" encoding="UTF-8"?>
<svg version="1.1" xmlns="http://www.w3.org/2000/svg" width="740" height="740">
<path d="M0 0 C1.33297119 0.62624268 1.33297119 0.62624268 2.69287109 1.26513672 C27.86847591 13.18395357 51.49828686 28.29649368 73 46 C73.54849609 46.45084961 74.09699219 46.90169922 74.66210938 47.36621094 C91.12095271 60.9597105 107.66409899 75.47751159 120.875 92.31640625 C122.82635634 94.78071104 124.85639586 97.15556805 126.92260742 99.52368164 C133.91363633 107.57816234 140.02983035 116.17101481 146 125 C146.47469727 125.7017334 146.94939453 126.4034668 147.43847656 127.12646484 C154.57646341 137.75451782 161.01061015 148.68772602 167 160 C167.65718018 161.23049072 167.65718018 161.23049072 168.32763672 162.48583984 C208.06920064 237.43239017 218.9742803 326.34145347 201 409 C200.67757324 410.49007568 200.67757324 410.49007568 200.34863281 412.01025391 C194.69369375 437.51664945 186.17447854 462.3931508 175 486 C174.52804199 486.99757324 174.05608398 487.99514648 173.56982422 489.02294922 C161.25493564 514.80254935 146.17443844 538.92631841 128 561 C127.54915039 561.54849609 127.09830078 562.09699219 126.63378906 562.66210938 C113.0402895 579.12095271 98.52248841 595.66409899 81.68359375 608.875 C79.21942258 610.82625053 76.84465659 612.85610537 74.47680664 614.92236328 C11.899723 669.23023011 -74.35867445 697.31519564 -156.4375 697.1875 C-157.22435181 697.18656342 -158.01120361 697.18562683 -158.82189941 697.18466187 C-211.70692118 697.04913114 -264.11330559 685.57623099 -312 663 C-312.95503418 662.55462891 -313.91006836 662.10925781 -314.89404297 661.65039062 C-336.58902873 651.45198525 -357.42570366 639.32187746 -376.22949219 624.40136719 C-378.04901454 622.9612047 -379.8853978 621.54517331 -381.7265625 620.1328125 C-387.87200794 615.39708957 -393.81978589 610.53372503 -399.5234375 605.265625 C-401.56465797 603.39826242 -403.63532478 601.58691797 -405.73046875 599.78125 C-410.31221696 595.78103959 -414.64002146 591.55205763 -418.9375 587.25 C-419.73164307 586.45505127 -420.52578613 585.66010254 -421.34399414 584.84106445 C-426.17664349 579.95773861 -430.7185125 575.03246647 -434.9453125 569.61328125 C-436.8668825 567.16930723 -438.87428125 564.82254254 -440.91821289 562.48071289 C-447.91221455 554.42616047 -454.02876404 545.8305621 -460 537 C-460.47469727 536.2982666 -460.94939453 535.5965332 -461.43847656 534.87353516 C-468.57646341 524.24548218 -475.01061015 513.31227398 -481 502 C-481.65718018 500.76950928 -481.65718018 500.76950928 -482.32763672 499.51416016 C-522.06920064 424.56760983 -532.9742803 335.65854653 -515 253 C-514.78504883 252.00661621 -514.57009766 251.01323242 -514.34863281 249.98974609 C-508.69185999 224.47507945 -500.15816054 199.62180122 -489 176 C-488.54399414 175.02901367 -488.08798828 174.05802734 -487.61816406 173.05761719 C-475.36314595 147.19338884 -460.3555427 122.99100941 -442 101 C-441.16082031 99.98808594 -440.32164062 98.97617188 -439.45703125 97.93359375 C-426.15934958 81.99444518 -412.05945865 65.97263249 -395.68359375 53.125 C-393.21928896 51.17364366 -390.84443195 49.14360414 -388.47631836 47.07739258 C-380.42183766 40.08636367 -371.82898519 33.97016965 -363 28 C-362.2982666 27.52530273 -361.5965332 27.05060547 -360.87353516 26.56152344 C-350.24548218 19.42353659 -339.31227398 12.98938985 -328 7 C-327.17967285 6.56187988 -326.3593457 6.12375977 -325.51416016 5.67236328 C-286.14474196 -15.20387776 -243.13802285 -27.6279601 -199 -33 C-198.02981934 -33.11859375 -197.05963867 -33.2371875 -196.06005859 -33.359375 C-129.33533348 -41.09690999 -60.52047363 -28.64670564 0 0 Z " fill="#FCFCFD" transform="translate(527,39)"/>
<path d="M0 0 C1.92392578 0.40025391 1.92392578 0.40025391 3.88671875 0.80859375 C28.2570243 6.63571251 50.43105964 19.39367312 69 36 C69.51498047 36.45842285 70.02996094 36.9168457 70.56054688 37.38916016 C93.1469714 57.84579096 108.65186423 87.39764055 115 117 C115.33644531 118.52753906 115.33644531 118.52753906 115.6796875 120.0859375 C119.92148483 143.61919667 117.60947889 169.40450657 110 192 C109.79536133 192.61762207 109.59072266 193.23524414 109.37988281 193.87158203 C96.51782577 232.15975332 68.32585444 262.90167135 32.34375 280.93359375 C18.97016811 287.40010684 5.63422938 291.50190515 -9 294 C-10.06089844 294.1959375 -11.12179687 294.391875 -12.21484375 294.59375 C-17.93288241 295.20745074 -23.62874767 295.14388144 -29.375 295.125 C-30.57511719 295.12886719 -31.77523437 295.13273437 -33.01171875 295.13671875 C-34.14996094 295.13542969 -35.28820312 295.13414062 -36.4609375 295.1328125 C-37.50040527 295.13168457 -38.53987305 295.13055664 -39.61083984 295.12939453 C-42 295 -42 295 -43 294 C-44.7508825 294.06208803 -46.50079787 294.15132706 -48.25 294.25 C-81.33240192 294.35834848 -115.58096518 273.62407419 -138.4375 251 C-148.18592383 241.06759184 -156.11094024 230.10279262 -163 218 C-163.58394531 216.98164063 -164.16789062 215.96328125 -164.76953125 214.9140625 C-168.76426477 207.46564289 -171.61531839 199.80903049 -174.3125 191.8125 C-174.65023437 190.81500732 -174.98796875 189.81751465 -175.3359375 188.78979492 C-187.02595991 152.95360528 -182.34749685 112.66897295 -165.68359375 79.2578125 C-146.69027642 42.81440898 -114.53601311 15.2278566 -75.375 2.625 C-72.26488814 1.68850377 -69.14187198 0.8231979 -66 0 C-65.33419922 -0.17789063 -64.66839844 -0.35578125 -63.98242188 -0.5390625 C-43.54243949 -5.73671695 -20.47675442 -4.32899409 0 0 Z " fill="#5E90E0" transform="translate(403,166)"/>
<path d="M0 0 C1.33297119 0.62624268 1.33297119 0.62624268 2.69287109 1.26513672 C27.86847591 13.18395357 51.49828686 28.29649368 73 46 C73.54849609 46.45084961 74.09699219 46.90169922 74.66210938 47.36621094 C91.12095271 60.9597105 107.66409899 75.47751159 120.875 92.31640625 C122.82635634 94.78071104 124.85639586 97.15556805 126.92260742 99.52368164 C133.91363633 107.57816234 140.02983035 116.17101481 146 125 C146.47469727 125.7017334 146.94939453 126.4034668 147.43847656 127.12646484 C154.57646341 137.75451782 161.01061015 148.68772602 167 160 C167.65718018 161.23049072 167.65718018 161.23049072 168.32763672 162.48583984 C208.06920064 237.43239017 218.9742803 326.34145347 201 409 C200.67757324 410.49007568 200.67757324 410.49007568 200.34863281 412.01025391 C194.69369375 437.51664945 186.17447854 462.3931508 175 486 C174.52804199 486.99757324 174.05608398 487.99514648 173.56982422 489.02294922 C161.25493564 514.80254935 146.17443844 538.92631841 128 561 C127.54915039 561.54849609 127.09830078 562.09699219 126.63378906 562.66210938 C113.0402895 579.12095271 98.52248841 595.66409899 81.68359375 608.875 C79.21942258 610.82625053 76.84465659 612.85610537 74.47680664 614.92236328 C11.899723 669.23023011 -74.35867445 697.31519564 -156.4375 697.1875 C-157.22435181 697.18656342 -158.01120361 697.18562683 -158.82189941 697.18466187 C-211.70692118 697.04913114 -264.11330559 685.57623099 -312 663 C-312.95503418 662.55462891 -313.91006836 662.10925781 -314.89404297 661.65039062 C-336.58902873 651.45198525 -357.42570366 639.32187746 -376.22949219 624.40136719 C-378.04901454 622.9612047 -379.8853978 621.54517331 -381.7265625 620.1328125 C-387.87200794 615.39708957 -393.81978589 610.53372503 -399.5234375 605.265625 C-401.56465797 603.39826242 -403.63532478 601.58691797 -405.73046875 599.78125 C-410.31221696 595.78103959 -414.64002146 591.55205763 -418.9375 587.25 C-419.73164307 586.45505127 -420.52578613 585.66010254 -421.34399414 584.84106445 C-426.17664349 579.95773861 -430.7185125 575.03246647 -434.9453125 569.61328125 C-436.8668825 567.16930723 -438.87428125 564.82254254 -440.91821289 562.48071289 C-447.91221455 554.42616047 -454.02876404 545.8305621 -460 537 C-460.47469727 536.2982666 -460.94939453 535.5965332 -461.43847656 534.87353516 C-468.57646341 524.24548218 -475.01061015 513.31227398 -481 502 C-481.65718018 500.76950928 -481.65718018 500.76950928 -482.32763672 499.51416016 C-522.06920064 424.56760983 -532.9742803 335.65854653 -515 253 C-514.78504883 252.00661621 -514.57009766 251.01323242 -514.34863281 249.98974609 C-508.69185999 224.47507945 -500.15816054 199.62180122 -489 176 C-488.54399414 175.02901367 -488.08798828 174.05802734 -487.61816406 173.05761719 C-475.36314595 147.19338884 -460.3555427 122.99100941 -442 101 C-441.16082031 99.98808594 -440.32164062 98.97617188 -439.45703125 97.93359375 C-426.15934958 81.99444518 -412.05945865 65.97263249 -395.68359375 53.125 C-393.21928896 51.17364366 -390.84443195 49.14360414 -388.47631836 47.07739258 C-380.42183766 40.08636367 -371.82898519 33.97016965 -363 28 C-362.2982666 27.52530273 -361.5965332 27.05060547 -360.87353516 26.56152344 C-350.24548218 19.42353659 -339.31227398 12.98938985 -328 7 C-327.17967285 6.56187988 -326.3593457 6.12375977 -325.51416016 5.67236328 C-286.14474196 -15.20387776 -243.13802285 -27.6279601 -199 -33 C-198.02981934 -33.11859375 -197.05963867 -33.2371875 -196.06005859 -33.359375 C-129.33533348 -41.09690999 -60.52047363 -28.64670564 0 0 Z M-198 -17 C-199.49442627 -16.82259277 -199.49442627 -16.82259277 -201.01904297 -16.64160156 C-266.49863096 -8.54039644 -331.45028768 18.91672935 -381.20898438 62.47998047 C-382.59174534 63.65351779 -383.99906226 64.79815948 -385.41601562 65.93017578 C-392.04935773 71.23187801 -398.19138516 76.87868888 -404.16210938 82.90136719 C-405.62413161 84.37412523 -407.09657488 85.83585045 -408.5703125 87.296875 C-414.81579331 93.53328652 -420.50013621 100.09410522 -426 107 C-427.07197231 108.28271514 -428.14828238 109.56182784 -429.23046875 110.8359375 C-438.0389486 121.32250147 -445.63612502 132.46398875 -453 144 C-453.51369141 144.8029248 -454.02738281 145.60584961 -454.55664062 146.43310547 C-460.34022909 155.5310767 -465.61746442 164.75494747 -470.296875 174.46875 C-471.68540608 177.3477227 -473.13602878 180.17283945 -474.625 183 C-477.59640896 188.97233523 -479.82521581 195.22101456 -482.08740234 201.48583984 C-483.11416268 204.31451238 -484.16066471 207.13555465 -485.20703125 209.95703125 C-485.99281385 212.09612419 -486.77797021 214.23544727 -487.5625 216.375 C-488.10825684 217.84271851 -488.10825684 217.84271851 -488.66503906 219.34008789 C-493.84069395 233.5801016 -497.49304192 248.13058357 -500.25805664 263.01245117 C-500.6860157 265.30455026 -501.13229829 267.59256011 -501.58007812 269.88085938 C-505.52652573 290.4836937 -506.40898858 310.92940364 -506.375 331.875 C-506.37478851 333.08244873 -506.37457703 334.28989746 -506.37435913 335.53393555 C-506.34152494 354.35306204 -505.52385069 372.48313464 -502 391 C-501.72712158 392.50119385 -501.72712158 392.50119385 -501.44873047 394.03271484 C-500.20315644 400.75258117 -498.69466209 407.37988453 -497 414 C-496.72704102 415.06718262 -496.45408203 416.13436523 -496.17285156 417.23388672 C-482.74690536 468.69012364 -459.07143385 515.23596307 -425 556 C-424.15620787 557.03251765 -423.3124594 558.06507099 -422.46875 559.09765625 C-411.15297707 572.77867791 -398.58773603 586.13399925 -384.53125 597.0234375 C-382.15809843 598.8765466 -379.89731232 600.82481349 -377.63696289 602.81274414 C-364.29624267 614.46130912 -349.36675821 624.24718292 -334 633 C-333.33387695 633.38575195 -332.66775391 633.77150391 -331.98144531 634.16894531 C-306.3453912 648.99705851 -279.18778081 661.20507234 -250.38476562 668.39941406 C-247.66186666 669.08515643 -244.94867267 669.80442414 -242.234375 670.5234375 C-229.8917649 673.75155018 -217.64447091 676.32127861 -205 678 C-203.59895244 678.1952702 -202.19791065 678.39058183 -200.796875 678.5859375 C-186.22214539 680.54527615 -171.69093134 681.21284584 -157 681.1875 C-156.23421631 681.18623108 -155.46843262 681.18496216 -154.67944336 681.18365479 C-70.39979092 680.9191606 13.33678253 648.98877969 75.6875 592.09375 C77.65655591 590.31095614 79.65890202 588.58881553 81.6875 586.875 C91.07562085 578.69392326 100.09835155 569.62594886 108 560 C108.43957031 559.47422363 108.87914062 558.94844727 109.33203125 558.40673828 C133.7505226 529.18499718 154.23877958 496.60506519 168 461 C168.36335449 460.0620459 168.72670898 459.1240918 169.10107422 458.15771484 C176.6861427 438.35243795 182.44779218 418.20176568 186.75 397.4375 C186.9365918 396.55513672 187.12318359 395.67277344 187.31542969 394.76367188 C191.15880957 375.20866542 192.47878581 355.66440123 192.33618164 335.76904297 C192.31241739 332.23772494 192.31567814 328.70716023 192.32226562 325.17578125 C192.29985841 305.07458799 190.7075927 285.60485238 186.875 265.875 C186.64774231 264.69043213 186.64774231 264.69043213 186.41589355 263.48193359 C176.47028583 212.04179838 154.96081867 162.60542888 123 121 C122.51692383 120.36288086 122.03384766 119.72576172 121.53613281 119.06933594 C116.08026427 111.88274258 110.3892218 105.04241504 104.24609375 98.4296875 C102.37745905 96.40831222 100.586462 94.35347657 98.8125 92.25 C90.66207594 82.87701233 81.60112213 73.88126895 72 66 C71.47422363 65.56042969 70.94844727 65.12085937 70.40673828 64.66796875 C31.22139365 31.92361599 -14.40625063 6.68134453 -63.95117188 -6.45556641 C-65.35841711 -6.82951265 -66.76328124 -7.21250053 -68.16601562 -7.60302734 C-110.08041929 -19.26103789 -154.82106763 -22.25198601 -198 -17 Z " fill="#707EFD" transform="translate(527,39)"/>
<path d="M0 0 C1.18529297 -0.04253906 1.18529297 -0.04253906 2.39453125 -0.0859375 C9.57539165 1.09915554 15.05904627 5.54446236 20.375 10.25 C20.96474609 10.75402344 21.55449219 11.25804687 22.16210938 11.77734375 C31.45569907 19.86142288 31.45569907 19.86142288 32.81640625 24.53515625 C32.6460126 29.41643314 31.6275495 31.9349505 28.1875 35.375 C22.53810122 35.17170724 19.81494199 31.41859485 16.1875 27.5625 C9.57286501 19.81885705 9.57286501 19.81885705 0.7109375 15.87890625 C-3.44841907 16.46453628 -5.05498348 17.56096522 -8.1875 20.3125 C-9.59128906 21.53453125 -9.59128906 21.53453125 -11.0234375 22.78125 C-14.4227045 25.9424731 -17.7237782 29.17774769 -20.9375 32.52734375 C-23.43936221 34.99272047 -25.13210122 36.29193348 -28.66015625 36.72265625 C-36.48577991 35.8596073 -42.93460946 28.44495806 -48.203125 22.98828125 C-50.82202316 20.36302654 -53.4166982 17.93422025 -56.8125 16.375 C-60.57549975 16.18479433 -60.57549975 16.18479433 -63.8125 17.375 C-66.51849887 21.4339983 -66.44985572 24.61117452 -65.8125 29.375 C-63.22246055 34.98675214 -59.34914158 37.94935035 -53.8125 40.375 C-43.06371513 44.02911805 -32.38329756 46.46933226 -20.9921875 46.6484375 C-20.25959213 46.66105621 -19.52699677 46.67367493 -18.77220154 46.68667603 C11.01846157 47.10030678 38.03048274 43.04655103 60.3125 21.375 C63.77574441 18.28078983 66.31885371 17.60645988 70.9140625 17.640625 C74.36494671 18.75534361 76.95885273 20.55222495 79.1875 23.375 C79.87890625 26.87109375 79.87890625 26.87109375 79.75 30.8125 C79.72776367 31.51262207 79.70552734 32.21274414 79.68261719 32.93408203 C79.18843419 43.56381427 76.7248074 53.75466095 72.1875 63.375 C71.80207031 64.22191406 71.41664063 65.06882812 71.01953125 65.94140625 C61.77332992 84.5693837 45.37700126 98.21527251 25.94873047 105.17724609 C23.68557128 105.91732208 21.41563895 106.60017511 19.125 107.25 C18.4546875 107.44102295 17.784375 107.6320459 17.09375 107.82885742 C5.02769089 110.97224829 -7.21104083 111.67223434 -19.62109375 111.5703125 C-20.96728807 111.56656705 -22.31348517 111.56372736 -23.65968323 111.56173706 C-27.14645357 111.55422084 -30.63304842 111.53468105 -34.11975098 111.5123291 C-37.70025256 111.49160647 -41.28078343 111.4826798 -44.86132812 111.47265625 C-51.84512267 111.45141936 -58.82880284 111.41743537 -65.8125 111.375 C-64.4925 114.345 -63.1725 117.315 -61.8125 120.375 C-60.54573929 120.37864563 -59.27897858 120.38229126 -57.97383118 120.38604736 C-46.04044071 120.42297579 -34.10730881 120.48072511 -22.17411518 120.55890274 C-16.03899878 120.59842523 -9.90402695 120.63059043 -3.76879883 120.64599609 C2.15117514 120.66113103 8.07075179 120.69552082 13.99054909 120.74330902 C16.24995281 120.7581554 18.50941324 120.76604287 20.76886559 120.76688385 C23.93187278 120.76924539 27.09377472 120.7962607 30.2565918 120.82910156 C31.66029022 120.82155602 31.66029022 120.82155602 33.09234619 120.81385803 C37.25954812 120.88087497 39.61972409 121.04208936 43.27693176 123.1864624 C45.1875 125.375 45.1875 125.375 45.6875 128.9375 C45.1875 132.375 45.1875 132.375 43.875 134.25 C40.90250884 136.23166077 38.3020552 136.50209462 34.83621216 136.51544189 C33.50301437 136.52400711 33.50301437 136.52400711 32.1428833 136.53274536 C31.17034607 136.53386322 30.19780884 136.53498108 29.19580078 136.53613281 C28.16951569 136.54109772 27.14323059 136.54606262 26.08584595 136.55117798 C22.68482802 136.56580417 19.28385673 136.57260205 15.8828125 136.578125 C13.52253213 136.58387566 11.16225177 136.5896334 8.80197144 136.59539795 C3.85056337 136.60590895 -1.10082844 136.61175111 -6.05224609 136.61523438 C-12.40000059 136.62072217 -18.74754092 136.64475607 -25.0952282 136.67320633 C-29.97137075 136.69181918 -34.84746155 136.69703757 -39.72363663 136.69857025 C-42.0640289 136.70159988 -44.4044202 136.70963879 -46.74477768 136.72275543 C-50.01735546 136.73978882 -53.28940773 136.73794219 -56.56201172 136.73144531 C-57.53050049 136.7406601 -58.49898926 136.74987488 -59.49682617 136.7593689 C-67.98501525 136.70651782 -67.98501525 136.70651782 -71.8125 133.375 C-76.16162337 127.0909547 -78.4065156 119.30441544 -80.78125 112.10546875 C-81.13879364 111.04253601 -81.49633728 109.97960327 -81.86471558 108.88446045 C-82.62670641 106.61704697 -83.38549204 104.34855418 -84.14129639 102.07907104 C-86.12399175 96.12597371 -88.12984635 90.18067602 -90.1328125 84.234375 C-90.5308609 83.05056747 -90.9289093 81.86675995 -91.33901978 80.64707947 C-95.36514862 68.69075476 -99.53788104 56.78832919 -103.75195312 44.8972168 C-111.8125 22.14663927 -111.8125 22.14663927 -111.8125 19.375 C-112.63451904 19.40118408 -113.45653809 19.42736816 -114.3034668 19.4543457 C-118.03544938 19.5584144 -121.7671266 19.62336128 -125.5 19.6875 C-127.44036133 19.7503418 -127.44036133 19.7503418 -129.41992188 19.81445312 C-131.29067383 19.83862305 -131.29067383 19.83862305 -133.19921875 19.86328125 C-134.34608154 19.88946533 -135.49294434 19.91564941 -136.67456055 19.94262695 C-140.79970257 19.19642333 -142.28341677 17.65352907 -144.8125 14.375 C-144.74435849 10.35465076 -144.6948175 8.2573175 -141.8125 5.375 C-139.15797947 5.138326 -136.61120389 5.02270392 -133.953125 5.00390625 C-132.78012848 4.99036354 -132.78012848 4.99036354 -131.58343506 4.97654724 C-129.92577959 4.96202505 -128.26806654 4.95315312 -126.61035156 4.94946289 C-124.08558938 4.93760841 -121.56330534 4.88848407 -119.0390625 4.83789062 C-117.42709524 4.82842131 -115.81511298 4.82118871 -114.203125 4.81640625 C-113.45291077 4.79687393 -112.70269653 4.77734161 -111.92974854 4.75721741 C-108.05871246 4.79017599 -105.43240182 5.27392397 -102.4152832 7.64135742 C-100.0835892 10.09028133 -98.86842368 11.54654876 -97.77734375 14.671875 C-97.46394043 15.54650391 -97.15053711 16.42113281 -96.82763672 17.32226562 C-96.4926416 18.32966797 -96.15764648 19.33707031 -95.8125 20.375 C-95.40918457 21.55255859 -95.00586914 22.73011719 -94.59033203 23.94335938 C-93.15586778 28.16096679 -91.76584084 32.39285218 -90.375 36.625 C-89.32147189 39.81722371 -88.26501075 43.00846774 -87.20703125 46.19921875 C-86.93454559 47.02123276 -86.66205994 47.84324677 -86.38131714 48.69017029 C-84.33868304 54.83436527 -82.24855397 60.96130683 -80.13671875 67.08203125 C-79.83653336 67.95308502 -79.53634796 68.82413879 -79.22706604 69.72158813 C-77.76613497 73.95808742 -76.29966192 78.19257291 -74.82641602 82.42480469 C-74.29556799 83.96153063 -73.7648792 85.49831158 -73.234375 87.03515625 C-72.9880986 87.73663284 -72.7418222 88.43810944 -72.48808289 89.1608429 C-71.49907862 92.03762194 -70.8125 94.30825362 -70.8125 97.375 C-62.23978247 97.31323118 -53.66740036 97.23573887 -45.0950098 97.13928509 C-41.11259628 97.09494655 -37.13027653 97.05561534 -33.14770508 97.02856445 C-29.28953302 97.00216029 -25.43172933 96.96151144 -21.5737896 96.91181374 C-20.116985 96.89539132 -18.66011708 96.88372654 -17.20323372 96.87738609 C-9.27172774 96.839447 -1.60039001 96.37402207 6.22485352 95.01879883 C6.90534476 94.90148501 7.58583601 94.7841712 8.2869482 94.66330242 C21.59410565 92.15053819 33.75786366 85.90168515 44.1875 77.375 C43.34155273 77.54890259 43.34155273 77.54890259 42.47851562 77.72631836 C39.88214371 78.25819184 37.28483924 78.78537146 34.6875 79.3125 C33.3571875 79.58610352 33.3571875 79.58610352 32 79.86523438 C4.6529577 85.39496719 -22.50935733 82.72964983 -46.8125 68.375 C-51.35072148 65.29580728 -55.58200551 61.8585934 -59.8125 58.375 C-60.82763672 57.60736328 -60.82763672 57.60736328 -61.86328125 56.82421875 C-71.64812629 49.19878779 -79.44229425 37.35511767 -81.3203125 25.046875 C-81.67609424 18.39530328 -80.87796248 13.54308538 -76.69921875 8.25390625 C-71.71263976 3.28797562 -66.92995297 1.10320047 -59.875 0.75 C-49.09178116 1.32183736 -42.52739013 7.03103018 -35.27758789 14.44824219 C-33.54423872 16.22568215 -33.54423872 16.22568215 -30.8125 18.375 C-27.12725625 17.92387008 -25.60425859 16.44236048 -23.125 13.75 C-16.68284268 7.06746367 -9.78721965 0.1581134 0 0 Z " fill="#F5F6FA" transform="translate(396.8125,247.625)"/>
<path d="M0 0 C0.68288086 0.15678223 1.36576172 0.31356445 2.06933594 0.47509766 C6.25611151 1.57283695 8.03845552 2.62436807 10.3125 6.25 C11.06008337 8.06166935 11.73295591 9.90506765 12.34960938 11.76538086 C12.72009399 12.87010239 13.09057861 13.97482391 13.47229004 15.11302185 C13.86299683 16.30162308 14.25370361 17.4902243 14.65625 18.71484375 C15.28325283 20.58724304 15.91026212 22.45964019 16.53765106 24.33191013 C17.6354674 27.61504909 18.72332839 30.90148543 19.8125 34.1875 C21.11229945 38.10513609 22.41441195 42.02196023 23.72521973 45.93592834 C24.54013331 48.37137961 25.34950401 50.80869416 26.15270996 53.24803162 C26.52319458 54.3559053 26.8936792 55.46377899 27.27539062 56.60522461 C27.59721313 57.57689072 27.91903564 58.54855682 28.25061035 59.54966736 C29.34429375 62.33084993 30.7707888 64.69800181 32.3125 67.25 C32.3125 67.91 32.3125 68.57 32.3125 69.25 C37.24022244 71.85197673 42.10575835 71.53858191 47.53125 71.5246582 C49.07111572 71.5323246 49.07111572 71.5323246 50.64208984 71.54014587 C54.03228601 71.55403545 57.42227878 71.55308576 60.8125 71.55078125 C63.16992264 71.55466809 65.52734459 71.55900274 67.88476562 71.56376648 C72.82424185 71.57122702 77.7636466 71.57093827 82.703125 71.56567383 C89.03514765 71.5598749 95.3668782 71.57682148 101.69885254 71.6000185 C106.56642367 71.61474318 111.43392421 71.61562933 116.30151367 71.61250877 C118.63631774 71.61302247 120.97112571 71.61826924 123.3059082 71.62832069 C126.56871598 71.640645 129.83095152 71.63391746 133.09375 71.62231445 C134.54177002 71.63378006 134.54177002 71.63378006 136.01904297 71.64547729 C142.68660296 71.61597109 142.68660296 71.61597109 148.3125 68.25 C149.0625 64.75 149.0625 64.75 148.3125 61.25 C146.53700549 59.13708835 145.04920829 58.35297082 142.316185 57.97097206 C139.704976 57.83836365 137.1097318 57.81363267 134.49511719 57.81762695 C133.49966888 57.8074353 132.50422058 57.79724365 131.47860718 57.78674316 C128.18880631 57.75655264 124.89929634 57.7473378 121.609375 57.73828125 C119.32821683 57.72143909 117.04706797 57.70328948 114.76593018 57.68388367 C108.76215523 57.63632747 102.75841802 57.60655432 96.7545166 57.58044434 C90.62793526 57.55066727 84.50148399 57.50412712 78.375 57.45898438 C66.35423463 57.37288723 54.33344253 57.30557036 42.3125 57.25 C41.64095067 55.96086513 40.97541141 54.66859796 40.3125 53.375 C39.94125 52.65570313 39.57 51.93640625 39.1875 51.1953125 C38.3125 49.25 38.3125 49.25 38.3125 47.25 C39.03452103 47.24413376 39.75654205 47.23826752 40.5004425 47.23222351 C47.39658498 47.17365805 54.29246701 47.10123515 61.18830585 47.01428509 C64.73122583 46.97007308 68.27404365 46.93071858 71.81713867 46.90356445 C104.35444623 46.64645932 136.92303682 44.45211396 161.3125 20.25 C167.4898322 13.64025454 171.96846405 6.15071538 176.3125 -1.75 C181.92234687 -1.01415267 185.19101293 0.4407468 189.3125 4.25 C194.11451645 10.60105402 192.80093086 18.70356721 191.7734375 26.1640625 C188.90954187 43.4471946 182.9573676 59.93466283 171.3125 73.25 C170.59964844 74.08273437 169.88679687 74.91546875 169.15234375 75.7734375 C156.45872902 90.27420492 156.45872902 90.27420492 150.3125 91.1875 C149.3225 91.208125 148.3325 91.22875 147.3125 91.25 C146.96058594 90.64671875 146.60867188 90.0434375 146.24609375 89.421875 C142.15655286 82.80173047 138.78273811 79.74007937 131.3125 77.25 C124.80681175 76.46726433 119.68623299 77.42502848 114.3125 81.25 C111.19065207 84.21337849 109.24468416 87.38563168 107.3125 91.25 C107.3125 95.54 107.3125 99.83 107.3125 104.25 C96.0925 103.92 84.8725 103.59 73.3125 103.25 C72.9825 99.29 72.6525 95.33 72.3125 91.25 C69.2466655 85.118331 66.12394717 81.42796981 60.125 78 C53.6895823 76.28388861 47.16225302 76.34432488 41.27441406 79.67041016 C38.86276685 81.61209227 37.89072323 83.64148465 36.4140625 86.3515625 C34.22088931 89.56658482 33.10291486 91.00698567 29.34741211 92.16162109 C25.80885048 92.45359442 22.42102548 92.41858468 18.875 92.25 C17.68583984 92.25515625 16.49667969 92.2603125 15.27148438 92.265625 C7.44632092 92.09182903 2.90336846 90.72347271 -2.6875 85.25 C-3.62335938 84.43660156 -4.55921875 83.62320313 -5.5234375 82.78515625 C-22.72281049 66.03561301 -35.49723002 41.68361307 -36 17.3125 C-35.95361031 11.76313368 -35.70716119 8.37830068 -31.6875 4.25 C-22.34822612 -4.15534649 -11.52569852 -2.75362482 0 0 Z " fill="#2E3761" transform="translate(292.6875,311.75)"/>
<path d="M0 0 C3.20195598 0.0994139 5.20645055 0.24093493 7.88671875 2.03125 C10.10494573 4.45638318 11.96980932 7.00648425 13.875 9.6875 C14.92174702 11.09968548 15.97147873 12.50966128 17.0234375 13.91796875 C19.42875371 17.15081903 21.81240846 20.39829548 24.18359375 23.65625 C28.29517344 29.28825191 32.52972397 34.8221384 36.7878418 40.34375 C37.29613525 41.00375 37.80442871 41.66375 38.328125 42.34375 C38.77317383 42.91931641 39.21822266 43.49488281 39.67675781 44.08789062 C40.79633086 45.58247958 41.83914436 47.13371654 42.875 48.6875 C42.88530746 48.11342911 42.89561493 47.53935822 42.90623474 46.94789124 C43.01407434 40.99484338 43.12868977 35.04195385 43.24731445 29.08911133 C43.29073588 26.86486104 43.33240545 24.64057585 43.37231445 22.41625977 C43.42984306 19.22661805 43.49358684 16.0371532 43.55859375 12.84765625 C43.57530624 11.84662369 43.59201874 10.84559113 43.60923767 9.81422424 C43.62918289 8.89334518 43.64912811 7.97246613 43.66967773 7.02368164 C43.68522202 6.20871719 43.7007663 5.39375275 43.71678162 4.55409241 C43.875 2.6875 43.875 2.6875 44.875 1.6875 C47.03980797 1.5885706 49.20793785 1.557789 51.375 1.5625 C52.5609375 1.55992187 53.746875 1.55734375 54.96875 1.5546875 C57.875 1.6875 57.875 1.6875 58.875 2.6875 C58.97998905 4.97719104 59.01357559 7.27016882 59.02026367 9.56225586 C59.02362228 10.28095352 59.0269809 10.99965118 59.03044128 11.74012756 C59.03997839 14.1275503 59.04189577 16.51490312 59.04296875 18.90234375 C59.04617943 20.55522186 59.04954335 22.20809968 59.05305481 23.86097717 C59.059053 27.33042052 59.06089401 30.79983894 59.06030273 34.26928711 C59.06020108 38.72287167 59.07385402 43.17629693 59.09107494 47.62984371 C59.10217397 51.04497517 59.10422259 54.46006787 59.10369301 57.87521553 C59.10487627 59.51751823 59.10931731 61.15982182 59.11702538 62.80210686 C59.12678313 65.09596907 59.12396414 67.38948221 59.11791992 69.68334961 C59.11934494 70.99049423 59.12076996 72.29763885 59.12223816 73.64439392 C58.875 76.6875 58.875 76.6875 56.875 78.6875 C53.0754853 79.52544011 49.68085657 79.47886826 45.875 78.6875 C42.38814915 76.35841905 40.2837463 73.07712752 37.875 69.6875 C36.82825298 68.27531452 35.77852127 66.86533872 34.7265625 65.45703125 C32.32124629 62.22418097 29.93759154 58.97670452 27.56640625 55.71875 C23.45482656 50.08674809 19.22027603 44.5528616 14.9621582 39.03125 C14.45386475 38.37125 13.94557129 37.71125 13.421875 37.03125 C12.97682617 36.45568359 12.53177734 35.88011719 12.07324219 35.28710938 C10.95366914 33.79252042 9.91085564 32.24128346 8.875 30.6875 C8.86691315 31.25935028 8.85882629 31.83120056 8.85049438 32.42037964 C8.76462052 38.35746999 8.66512527 44.29421981 8.55761719 50.23095703 C8.51926866 52.4483469 8.48442629 54.66580024 8.453125 56.88330078 C8.40760174 60.06566089 8.34958681 63.24758182 8.2890625 66.4296875 C8.27173569 67.92349442 8.27173569 67.92349442 8.25405884 69.44747925 C8.23418915 70.36828278 8.21431946 71.2890863 8.19384766 72.23779297 C8.18052399 73.0505368 8.16720032 73.86328064 8.1534729 74.70065308 C7.875 76.6875 7.875 76.6875 5.875 78.6875 C3.34375 78.953125 3.34375 78.953125 0.375 78.9375 C-0.6046875 78.94265625 -1.584375 78.9478125 -2.59375 78.953125 C-5.125 78.6875 -5.125 78.6875 -7.125 76.6875 C-7.37896729 73.65112305 -7.37896729 73.65112305 -7.38378906 69.69921875 C-7.3872937 68.98037506 -7.39079834 68.26153137 -7.39440918 67.52090454 C-7.40322965 65.13883884 -7.39737636 62.75706885 -7.390625 60.375 C-7.39197156 58.72355085 -7.39391202 57.07210209 -7.39642334 55.4206543 C-7.39937503 51.95715567 -7.39507557 48.4937601 -7.38574219 45.03027344 C-7.37434758 40.58454689 -7.38090682 36.1390618 -7.39288712 31.69334412 C-7.40010454 28.28249279 -7.39781834 24.87169898 -7.39263153 21.46084595 C-7.39129471 19.82133964 -7.3929439 18.18182815 -7.39759064 16.54232788 C-7.402654 14.25333774 -7.39494862 11.96474192 -7.38378906 9.67578125 C-7.38219788 8.37165283 -7.38060669 7.06752441 -7.37896729 5.72387695 C-6.95256059 0.62585239 -4.62306254 0.28974626 0 0 Z " fill="#293247" transform="translate(380.125,494.3125)"/>
<path d="M0 0 C2.12165281 1.16398934 3.52681183 2.37012003 5.12890625 4.16796875 C5.43828125 3.36359375 5.74765625 2.55921875 6.06640625 1.73046875 C7.12890625 -0.83203125 7.12890625 -0.83203125 8.12890625 -1.83203125 C9.77120989 -1.95657985 11.41942901 -2.00771649 13.06640625 -2.01953125 C13.96230469 -2.03371094 14.85820312 -2.04789063 15.78125 -2.0625 C18.12890625 -1.83203125 18.12890625 -1.83203125 20.12890625 0.16796875 C20.38287354 2.48303223 20.38287354 2.48303223 20.38769531 5.41210938 C20.39399963 6.50664429 20.40030396 7.6011792 20.40679932 8.72888184 C20.40275085 9.91534302 20.39870239 11.1018042 20.39453125 12.32421875 C20.39740143 14.14403259 20.39740143 14.14403259 20.40032959 16.00061035 C20.40169259 18.56958218 20.39798817 21.13856087 20.38964844 23.70751953 C20.37895085 27.65152379 20.38954019 31.5950725 20.40234375 35.5390625 C20.40102218 38.02994893 20.39845983 40.52083507 20.39453125 43.01171875 C20.39857971 44.19817993 20.40262817 45.38464111 20.40679932 46.60705566 C20.400495 47.70159058 20.39419067 48.79612549 20.38769531 49.92382812 C20.38610413 50.89042358 20.38451294 51.85701904 20.38287354 52.85290527 C20.12890625 55.16796875 20.12890625 55.16796875 18.12890625 57.16796875 C15.81640625 57.43359375 15.81640625 57.43359375 13.12890625 57.41796875 C11.79859375 57.42570313 11.79859375 57.42570313 10.44140625 57.43359375 C8.12890625 57.16796875 8.12890625 57.16796875 6.12890625 55.16796875 C6.12890625 53.84796875 6.12890625 52.52796875 6.12890625 51.16796875 C5.58621094 51.51730469 5.04351562 51.86664062 4.484375 52.2265625 C3.76894531 52.68160156 3.05351562 53.13664063 2.31640625 53.60546875 C1.25486328 54.28416016 1.25486328 54.28416016 0.171875 54.9765625 C-6.00244328 58.57726436 -14.481275 57.99280731 -21.32421875 56.70703125 C-29.29569473 54.03941133 -34.08085645 48.57338352 -37.92578125 41.31640625 C-41.20426244 33.86531265 -41.46573179 22.97101854 -38.89453125 15.2265625 C-37.69245624 13.04734062 -36.4015606 11.12678784 -34.87109375 9.16796875 C-34.03578125 7.83765625 -34.03578125 7.83765625 -33.18359375 6.48046875 C-23.50581818 -3.19730682 -12.4037672 -5.19644179 0 0 Z " fill="#2A3247" transform="translate(253.87109375,515.83203125)"/>
<path d="M0 0 C1.22621306 1.02055888 2.43539029 2.06200064 3.625 3.125 C4.23730469 3.63417969 4.84960938 4.14335937 5.48046875 4.66796875 C7.91048196 6.83106976 9.50759622 8.34230815 10 11.625 C7.87237953 15.49340085 4.57838068 18.17398096 0.625 20.125 C-2.6546069 19.87033356 -4.25969556 18.55844507 -6.5625 16.3125 C-12.90855651 10.72096401 -19.24860182 8.37110217 -27.73828125 8.75 C-35.03075195 9.78715139 -39.25360415 13.5574137 -43.9296875 19.02734375 C-48.03963815 24.99232618 -48.21539563 31.09544076 -47.375 38.125 C-44.6960089 46.67624393 -39.69259234 51.68107981 -32.0625 56 C-25.22210429 58.08690039 -19.66375667 58.04814221 -13.125 55 C-9.91426218 53.25142917 -7.52347056 51.44385013 -5.0625 48.75 C-2.375 46.125 -2.375 46.125 0.125 45.9375 C3.71051893 47.64062149 5.88210877 49.18618797 8.625 52.125 C8.87044223 56.05207573 8.05222008 57.60715748 5.5625 60.625 C-4.47454209 69.16716348 -12.79969056 73.56793636 -26.3046875 73.40234375 C-39.42799383 72.21690514 -48.27575284 66.23240453 -56.6171875 56.484375 C-59.26659813 52.92827717 -60.95065502 49.30807631 -62.375 45.125 C-62.59929687 44.46757813 -62.82359375 43.81015625 -63.0546875 43.1328125 C-65.99558028 33.10154808 -64.4349496 23.64014947 -60.375 14.125 C-56.06987022 6.50598928 -51.04094944 1.29995016 -43.375 -2.875 C-42.3025 -3.473125 -41.23 -4.07125 -40.125 -4.6875 C-27.66276858 -10.06891811 -10.88026116 -7.80094197 0 0 Z " fill="#2A3347" transform="translate(201.375,500.875)"/>
<path d="M0 0 C3.71414486 3.49093904 5.92503341 7.76711448 8.125 12.3125 C8.62 13.3025 8.62 13.3025 9.125 14.3125 C9.22163965 16.49826146 9.25480327 18.68710848 9.25 20.875 C9.25386719 22.64037109 9.25386719 22.64037109 9.2578125 24.44140625 C9.125 27.3125 9.125 27.3125 8.125 28.3125 C5.02248799 28.40124135 1.9423188 28.42768455 -1.16015625 28.41015625 C-2.09097519 28.4087413 -3.02179413 28.40732635 -3.9808197 28.40586853 C-6.96641191 28.40025172 -9.95193029 28.3876964 -12.9375 28.375 C-14.95637913 28.36998716 -16.97525943 28.36542388 -18.99414062 28.36132812 C-23.95445572 28.35027683 -28.91471532 28.33300095 -33.875 28.3125 C-33.25666141 29.6067408 -32.6316831 30.89781085 -32.00390625 32.1875 C-31.65658447 32.90679688 -31.3092627 33.62609375 -30.95141602 34.3671875 C-29.31335016 37.32752063 -28.09412625 38.21662723 -24.875 39.3125 C-18.56179692 39.9882251 -13.31092981 39.93645321 -7.875 36.3125 C-7.215 35.6525 -6.555 34.9925 -5.875 34.3125 C-1.55788851 34.60030743 1.76199975 35.54297038 5.125 38.3125 C5.4765625 40.6953125 5.4765625 40.6953125 5.125 43.3125 C3.65625 45.2265625 3.65625 45.2265625 1.625 46.9375 C0.9753125 47.50726562 0.325625 48.07703125 -0.34375 48.6640625 C-6.57391852 52.7213636 -12.52926173 53.81894464 -19.875 53.75 C-21.00808594 53.7799707 -21.00808594 53.7799707 -22.1640625 53.81054688 C-29.00376075 53.80467085 -33.8717463 51.60419849 -39.265625 47.48828125 C-46.71350044 40.02475901 -49.24914114 33.84925094 -49.4375 23.375 C-49.35430873 14.88689103 -47.88928908 8.63177613 -41.97265625 2.265625 C-30.04232964 -8.81744233 -13.17419422 -10.25929658 0 0 Z " fill="#2A3247" transform="translate(496.875,519.6875)"/>
<path d="M0 0 C5.45317465 3.13678188 5.45317465 3.13678188 6.58984375 5.859375 C6.76953125 7.89453125 6.76953125 7.89453125 5.20703125 11.08203125 C2.76953125 13.89453125 2.76953125 13.89453125 -0.04296875 14.95703125 C-3.35409074 14.89210729 -5.28832873 14.04640384 -8.21875 12.59765625 C-12.08723009 11.24556612 -16.18788979 11.67491428 -20.23046875 11.89453125 C-20.56046875 13.21453125 -20.89046875 14.53453125 -21.23046875 15.89453125 C-16.3574573 19.4515288 -11.57671244 21.25586004 -5.796875 22.87304688 C-0.23243404 24.56286177 3.79954946 26.99951453 7.1171875 31.875 C8.67482567 36.69714932 8.82991542 42.30984484 6.89453125 47.02734375 C3.73940456 51.82230602 -0.50521291 54.62436393 -5.9375 56.4765625 C-15.65402832 58.24771843 -26.61869168 58.03324596 -35.23046875 52.89453125 C-37.91796875 51.01953125 -37.91796875 51.01953125 -39.23046875 48.89453125 C-39.23046875 45.2925287 -38.62711959 43.45278058 -36.54296875 40.51953125 C-33.46265275 38.35498487 -31.93426811 38.30192335 -28.23046875 38.89453125 C-27.36421875 39.55453125 -26.49796875 40.21453125 -25.60546875 40.89453125 C-20.65698953 43.82696338 -15.86221399 43.40880739 -10.23046875 42.89453125 C-9.24046875 42.39953125 -9.24046875 42.39953125 -8.23046875 41.89453125 C-8.23046875 40.24453125 -8.23046875 38.59453125 -8.23046875 36.89453125 C-12.31777229 34.71873358 -16.20506534 33.23035498 -20.66796875 32.01953125 C-27.34900302 30.00836472 -31.97725089 28.01996247 -36.16796875 22.20703125 C-38.03290739 16.39281079 -38.2718733 11.19429964 -35.73046875 5.58203125 C-26.40209126 -4.44597455 -12.18712893 -6.04020576 0 0 Z " fill="#2B3448" transform="translate(550.23046875,516.10546875)"/>
<path d="M0 0 C1.08152344 -0.01417969 2.16304687 -0.02835937 3.27734375 -0.04296875 C6.0625 0.1875 6.0625 0.1875 8.0625 2.1875 C8.20747985 4.76814129 8.24927545 7.23693884 8.1875 9.8125 C8.17847656 10.51890625 8.16945313 11.2253125 8.16015625 11.953125 C8.13657603 13.69806098 8.10070461 15.44282295 8.0625 17.1875 C9.06152344 17.17589844 10.06054688 17.16429687 11.08984375 17.15234375 C12.38019531 17.14332031 13.67054688 17.13429688 15 17.125 C16.28777344 17.11339844 17.57554687 17.10179687 18.90234375 17.08984375 C22.0625 17.1875 22.0625 17.1875 23.0625 18.1875 C23.18737758 19.99677281 23.23820846 21.81146107 23.25 23.625 C23.26417969 24.61371094 23.27835938 25.60242188 23.29296875 26.62109375 C23.0625 29.1875 23.0625 29.1875 21.0625 31.1875 C18.0234375 31.3828125 18.0234375 31.3828125 14.4375 31.3125 C13.24898437 31.29445313 12.06046875 31.27640625 10.8359375 31.2578125 C9.92070313 31.23460937 9.00546875 31.21140625 8.0625 31.1875 C8.17194715 35.64635926 8.30267666 40.10434156 8.4375 44.5625 C8.4684375 45.83351563 8.499375 47.10453125 8.53125 48.4140625 C8.56992187 49.62578125 8.60859375 50.8375 8.6484375 52.0859375 C8.69556885 53.76695557 8.69556885 53.76695557 8.74365234 55.48193359 C8.79661203 58.33460412 8.79661203 58.33460412 11.0625 60.1875 C13.69226524 60.61303161 13.69226524 60.61303161 16.625 60.75 C21.96527778 61.09027778 21.96527778 61.09027778 23.0625 62.1875 C23.18737758 63.99677281 23.23820846 65.81146107 23.25 67.625 C23.26417969 68.61371094 23.27835938 69.60242188 23.29296875 70.62109375 C23.0625 73.1875 23.0625 73.1875 21.0625 75.1875 C14.40680186 75.93866803 6.69603096 76.47858811 0.88671875 72.64379883 C-3.85607465 68.85756186 -6.6161492 64.61637103 -7.41894531 58.54858398 C-7.59916683 54.40205018 -7.46296403 50.27033143 -7.3125 46.125 C-7.28234599 44.67258167 -7.25497979 43.22010265 -7.23046875 41.76757812 C-7.1649394 38.23960641 -7.06172686 34.71395016 -6.9375 31.1875 C-7.71996094 31.19910156 -8.50242187 31.21070313 -9.30859375 31.22265625 C-10.32050781 31.23167969 -11.33242188 31.24070312 -12.375 31.25 C-13.38433594 31.26160156 -14.39367187 31.27320313 -15.43359375 31.28515625 C-17.9375 31.1875 -17.9375 31.1875 -18.9375 30.1875 C-19.03623816 28.18950428 -19.06721799 26.18792842 -19.0625 24.1875 C-19.06507813 23.094375 -19.06765625 22.00125 -19.0703125 20.875 C-18.9375 18.1875 -18.9375 18.1875 -17.9375 17.1875 C-16.08462498 17.11523498 -14.22916122 17.1036878 -12.375 17.125 C-11.36308594 17.13402344 -10.35117187 17.14304687 -9.30859375 17.15234375 C-8.13490234 17.16974609 -8.13490234 17.16974609 -6.9375 17.1875 C-6.94910156 16.04410156 -6.96070313 14.90070312 -6.97265625 13.72265625 C-6.98203288 12.23177246 -6.99113321 10.74088691 -7 9.25 C-7.00837891 8.49525391 -7.01675781 7.74050781 -7.02539062 6.96289062 C-7.03402441 5.03755687 -6.98974333 3.11214419 -6.9375 1.1875 C-5.13003866 -0.61996134 -2.43304219 0.01446517 0 0 Z " fill="#2B354A" transform="translate(579.9375,497.8125)"/>
<path d="M0 0 C1.1859375 0.00257813 2.371875 0.00515625 3.59375 0.0078125 C4.7796875 0.00523437 5.965625 0.00265625 7.1875 0 C10.09375 0.1328125 10.09375 0.1328125 11.09375 1.1328125 C11.16694621 3.82936104 11.18617537 6.49972708 11.15625 9.1953125 C11.15173828 9.95392578 11.14722656 10.71253906 11.14257812 11.49414062 C11.1307568 13.37373121 11.11282078 15.25328149 11.09375 17.1328125 C12.09277344 17.12121094 13.09179688 17.10960937 14.12109375 17.09765625 C15.41144531 17.08863281 16.70179688 17.07960938 18.03125 17.0703125 C19.31902344 17.05871094 20.60679687 17.04710937 21.93359375 17.03515625 C25.09375 17.1328125 25.09375 17.1328125 26.09375 18.1328125 C26.21862758 19.94208531 26.26945846 21.75677357 26.28125 23.5703125 C26.29542969 24.55902344 26.30960937 25.54773438 26.32421875 26.56640625 C26.09375 29.1328125 26.09375 29.1328125 24.09375 31.1328125 C21.0546875 31.328125 21.0546875 31.328125 17.46875 31.2578125 C16.28023438 31.23976563 15.09171875 31.22171875 13.8671875 31.203125 C12.95195312 31.17992187 12.03671875 31.15671875 11.09375 31.1328125 C11.2323902 35.4039114 11.38088901 39.67461142 11.53125 43.9453125 C11.57056641 45.16025391 11.60988281 46.37519531 11.65039062 47.62695312 C11.69228516 48.79033203 11.73417969 49.95371094 11.77734375 51.15234375 C11.81400146 52.22589111 11.85065918 53.29943848 11.88842773 54.40551758 C11.98916847 57.22592803 11.98916847 57.22592803 13.09375 60.1328125 C14.48400391 60.22369141 14.48400391 60.22369141 15.90234375 60.31640625 C17.09988281 60.40019531 18.29742187 60.48398437 19.53125 60.5703125 C20.72621094 60.65152344 21.92117188 60.73273437 23.15234375 60.81640625 C26.09375 61.1328125 26.09375 61.1328125 27.09375 62.1328125 C27.296875 64.3125 27.296875 64.3125 27.34375 67.0078125 C27.38242187 68.33425781 27.38242187 68.33425781 27.421875 69.6875 C27.09375 72.1328125 27.09375 72.1328125 26 73.92578125 C21.5100454 76.76880578 15.17214437 75.64352109 10.09375 75.1328125 C4.02326184 73.30857412 0.28188137 68.54375111 -3.03076172 63.37988281 C-4.25065053 60.24885754 -4.12998584 57.53364125 -4.1015625 54.1796875 C-4.0987326 53.51946594 -4.09590271 52.85924438 -4.09298706 52.17901611 C-4.08183415 50.08009353 -4.05673946 47.98160508 -4.03125 45.8828125 C-4.02121384 44.45573535 -4.0120891 43.02865148 -4.00390625 41.6015625 C-3.98191111 38.11183922 -3.94741536 34.62236827 -3.90625 31.1328125 C-4.84597656 31.18501953 -4.84597656 31.18501953 -5.8046875 31.23828125 C-6.62195313 31.26535156 -7.43921875 31.29242187 -8.28125 31.3203125 C-9.09335937 31.35511719 -9.90546875 31.38992188 -10.7421875 31.42578125 C-11.45632813 31.32910156 -12.17046875 31.23242188 -12.90625 31.1328125 C-15.11539 27.8191025 -15.13106553 26.7882104 -15.03125 22.9453125 C-15.01320313 22.04425781 -14.99515625 21.14320313 -14.9765625 20.21484375 C-14.95335937 19.52777344 -14.93015625 18.84070313 -14.90625 18.1328125 C-12.50079362 16.93008431 -10.95628047 17.03209778 -8.28125 17.0703125 C-7.05535156 17.08384766 -7.05535156 17.08384766 -5.8046875 17.09765625 C-5.17820312 17.10925781 -4.55171875 17.12085938 -3.90625 17.1328125 C-3.91785156 15.98941406 -3.92945313 14.84601562 -3.94140625 13.66796875 C-3.95078288 12.17708496 -3.95988321 10.68619941 -3.96875 9.1953125 C-3.97712891 8.44056641 -3.98550781 7.68582031 -3.99414062 6.90820312 C-4.00277441 4.98286937 -3.95849333 3.05745669 -3.90625 1.1328125 C-2.90625 0.1328125 -2.90625 0.1328125 0 0 Z " fill="#2D354A" transform="translate(336.90625,497.8671875)"/>
<path d="M0 0 C4.90374239 3.09107497 8.00341289 7.88539447 10.0078125 13.265625 C11.04252547 19.92816704 9.59009319 25.58908791 6.0078125 31.265625 C2.16942342 35.58775627 -2.32567077 37.94127277 -8.04296875 38.63671875 C-15.31626375 38.78479781 -20.55992111 38.40280531 -25.9921875 33.265625 C-28.3671875 30.203125 -28.3671875 30.203125 -29.9921875 27.265625 C-30.34667969 26.65332031 -30.70117188 26.04101562 -31.06640625 25.41015625 C-33.12820257 20.63409643 -32.93298089 14.82545818 -31.15234375 9.98046875 C-24.34760656 -1.91063765 -12.27957098 -6.07560655 0 0 Z " fill="#F4F3F9" transform="translate(430.9921875,390.734375)"/>
<path d="M0 0 C5.32167536 3.02710683 9.40724195 7.7847902 11.75 13.4375 C12.58064944 20.15598813 11.28385964 25.54676453 8.125 31.5 C4.18110383 36.37797684 0.73620427 38.9696965 -5.56640625 39.95703125 C-12.6445928 40.28536137 -17.85974727 39.69636672 -23.47265625 35.19140625 C-28.15651007 30.56931753 -29.47214065 27.0805075 -29.6875 20.4375 C-29.42394943 13.15805158 -27.51313895 7.70063895 -22.25 2.4375 C-15.46051948 -2.38287364 -7.68883449 -3.38954345 0 0 Z " fill="#F4F0F9" transform="translate(354.25,389.5625)"/>
<path d="M0 0 C0.9796875 0.01417969 1.959375 0.02835938 2.96875 0.04296875 C3.9484375 0.04941406 4.928125 0.05585937 5.9375 0.0625 C8.46875 0.23046875 8.46875 0.23046875 10.46875 1.23046875 C11.09375 4.29296875 11.09375 4.29296875 11.46875 7.23046875 C11.95085937 6.80894531 12.43296875 6.38742187 12.9296875 5.953125 C13.56132812 5.40527344 14.19296875 4.85742188 14.84375 4.29296875 C15.78347656 3.47505859 15.78347656 3.47505859 16.7421875 2.640625 C19.39894522 0.47073917 21.10298016 0.07390413 24.46875 0.04296875 C25.520625 0.02169922 25.520625 0.02169922 26.59375 0 C28.46875 0.23046875 28.46875 0.23046875 30.46875 2.23046875 C30.734375 4.54296875 30.734375 4.54296875 30.71875 7.23046875 C30.72648437 8.56078125 30.72648437 8.56078125 30.734375 9.91796875 C30.46875 12.23046875 30.46875 12.23046875 28.46875 14.23046875 C26.515625 14.72265625 26.515625 14.72265625 24.21875 15.10546875 C19.76274861 16.01104323 17.0118188 17.39601371 13.46875 20.23046875 C11.95222612 23.26351651 12.29138745 26.42863662 12.2578125 29.7578125 C12.22974877 31.28712017 12.20108434 32.81641691 12.171875 34.34570312 C12.13057259 36.75968171 12.09369021 39.17345521 12.06738281 41.58764648 C12.03980738 43.91563131 11.99394391 46.24268517 11.9453125 48.5703125 C11.94205963 49.29226303 11.93880676 50.01421356 11.93545532 50.75804138 C11.86332815 53.69260873 11.81159969 55.73933489 10.10327148 58.18652344 C7.69072339 59.72738313 5.73896628 59.59200379 2.90625 59.54296875 C1.93558594 59.53910156 0.96492188 59.53523437 -0.03515625 59.53125 C-2.53125 59.23046875 -2.53125 59.23046875 -4.53125 57.23046875 C-4.78521729 54.91540527 -4.78521729 54.91540527 -4.79003906 51.98632812 C-4.79634338 50.89179321 -4.80264771 49.7972583 -4.80914307 48.66955566 C-4.8050946 47.48309448 -4.80104614 46.2966333 -4.796875 45.07421875 C-4.79878845 43.86100952 -4.8007019 42.64780029 -4.80267334 41.39782715 C-4.80403634 38.82885532 -4.80033192 36.25987663 -4.79199219 33.69091797 C-4.7812946 29.74691371 -4.79188394 25.803365 -4.8046875 21.859375 C-4.80336593 19.36848857 -4.80080358 16.87760243 -4.796875 14.38671875 C-4.80294769 12.60702698 -4.80294769 12.60702698 -4.80914307 10.79138184 C-4.80283875 9.69684692 -4.79653442 8.60231201 -4.79003906 7.47460938 C-4.78844788 6.50801392 -4.78685669 5.54141846 -4.78521729 4.54553223 C-4.41068952 1.13148795 -3.38356535 0.30807154 0 0 Z " fill="#30394E" transform="translate(288.53125,513.76953125)"/>
<path d="M0 0 C4.78472379 2.66840365 8.11506617 5.74320778 10.25 10.8125 C11.14739058 16.36379989 10.32889986 21.12556667 7.59375 26.01953125 C4.64950564 29.94804335 0.85356375 32.27797875 -3.75 33.8125 C-9.5713059 34.40449721 -13.09813275 33.81181777 -17.91796875 30.41796875 C-21.80368833 27.01278592 -24.23436102 23.47099934 -25.2265625 18.35546875 C-25.54483379 12.90297898 -24.49679072 8.94111237 -21.29296875 4.5078125 C-15.29879109 -2.07819536 -8.21799502 -2.60236509 0 0 Z " fill="#F8FCFD" transform="translate(404.75,206.1875)"/>
<path d="M0 0 C-0.47024647 7.29692802 -1.47298596 12.85282648 -7 18.0625 C-24.91407265 32.35643714 -51.35022606 32.22798859 -73 31 C-80.34160369 30.05461507 -87.17234874 27.82787048 -94 25 C-91.17239774 24.18899154 -88.73314135 23.8988857 -85.796875 23.97265625 C-84.98935791 23.98643311 -84.18184082 24.00020996 -83.34985352 24.0144043 C-82.49190186 24.03027588 -81.6339502 24.04614746 -80.75 24.0625 C-52.16593414 24.30326788 -22.92175369 0 0 0 Z " fill="#418CD7" transform="translate(462,285)"/>
<path d="M0 0 C3.51520834 2.3707219 5.79390381 5.02530762 7.6875 8.8125 C8.37732266 13.90778102 8.85621344 18.77900128 6.23046875 23.34765625 C2.95603775 27.14599621 0.59785959 29.50693729 -4.58203125 30.05078125 C-8.83629439 30.17494561 -11.74894559 30.06296863 -15.6875 28.3125 C-20.16584291 24.04741152 -21.97222977 19.95620248 -22.9375 13.875 C-22.67226042 8.72323118 -19.6913655 4.54785131 -16.3125 0.8125 C-11.24664258 -2.43826276 -5.48760781 -1.96725563 0 0 Z " fill="#F9F9FB" transform="translate(250.3125,529.1875)"/>
<path d="M0 0 C4.36566967 2.24386032 6.92954224 4.91094205 9.00390625 9.30859375 C9.89676447 14.95998043 9.24984693 19.49564722 6.00390625 24.30859375 C1.08236647 28.74998331 -1.95055961 29.68125351 -8.45703125 29.578125 C-12.30597333 29.169545 -14.20751683 27.9643813 -16.99609375 25.30859375 C-20.2968704 20.55341239 -21.93362673 16.14213227 -20.99609375 10.30859375 C-19.19903925 6.33150592 -17.00784606 3.20792914 -13.74609375 0.30859375 C-9.14869092 -1.3631891 -4.66721372 -1.61662784 0 0 Z " fill="#F8FBFD" transform="translate(346.99609375,211.69140625)"/>
<path d="M0 0 C0.66 0 1.32 0 2 0 C2 2.97 2 5.94 2 9 C2.845625 8.505 3.69125 8.01 4.5625 7.5 C8.33796832 5.85252292 10.92817548 5.75569053 15 6 C15.33 7.32 15.66 8.64 16 10 C13.38485683 12.12038635 10.80362384 14.13091744 8 16 C8.20625 16.61875 8.4125 17.2375 8.625 17.875 C8.74875 18.57625 8.8725 19.2775 9 20 C6.51981247 22.48018753 5.61484049 22.32361558 2.1875 22.375 C-1.33982548 22.29332531 -2.92532217 22.03883247 -6.125 20.375 C-8.56385253 17.2857868 -8.40023255 15.87519279 -8 12 C-6.50390625 9.04296875 -6.50390625 9.04296875 -4.5625 6.1875 C-3.92441406 5.23230469 -3.28632813 4.27710938 -2.62890625 3.29296875 C-1 1 -1 1 0 0 Z " fill="#F2FBFD" transform="translate(445,230)"/>
<path d="M0 0 C3.91075925 1.98968453 5.57689098 3.36533646 8 7 C8 7.99 8 8.98 8 10 C-0.58 10 -9.16 10 -18 10 C-17.06649406 5.3324703 -16.69246923 3.7655683 -13.0078125 0.953125 C-8.84511651 -1.0229408 -4.46044813 -0.72904798 0 0 Z " fill="#EFF0F3" transform="translate(482,527)"/>
<path d="M0 0 C1.9375 1 1.9375 1 3 3 C3.45982357 5.75894141 3.51068558 8.24574069 3 11 C0.81246717 13.6923481 -0.58423955 13.93936827 -4 14.4375 C-7 14 -7 14 -9.375 12.375 C-11.48706506 9.28813568 -11.61195145 7.6717087 -11 4 C-8.05323917 -0.47907646 -5.13567732 -0.65363166 0 0 Z " fill="#44498B" transform="translate(424,402)"/>
<path d="M0 0 C2.375 1.625 2.375 1.625 4 4 C4.61195145 7.6717087 4.48706506 9.28813568 2.375 12.375 C0 14 0 14 -3 14.5625 C-6 14 -6 14 -8.375 11.8125 C-10.14232156 8.75367423 -10.70698088 7.44653179 -10 4 C-7.16979976 -0.02759265 -4.82432618 -0.80405436 0 0 Z " fill="#564697" transform="translate(348,402)"/>
<path d="M0 0 C0.99 0 1.98 0 3 0 C3.66 2.64 4.32 5.28 5 8 C5.5775 7.649375 6.155 7.29875 6.75 6.9375 C9.35801776 5.85082593 10.39417629 6.06934867 13 7 C12.62446309 9.5471199 12.29946609 10.72840784 10.36328125 12.484375 C9.68652344 12.90203125 9.00976562 13.3196875 8.3125 13.75 C7.64863281 14.17796875 6.98476563 14.6059375 6.30078125 15.046875 C3.42708935 16.2373348 1.08003474 16.1586284 -2 16 C-2.05384521 13.70858714 -2.09272087 11.41681812 -2.125 9.125 C-2.14820313 7.84882813 -2.17140625 6.57265625 -2.1953125 5.2578125 C-2 2 -2 2 0 0 Z " fill="#E8F9FD" transform="translate(431,214)"/>
<path d="M0 0 C22.47105652 6.41550343 43.64210013 30.86683958 55.08984375 50.46875 C56.45202349 52.95592994 57.76672058 55.44689523 59 58 C58.34 58 57.68 58 57 58 C55.87768555 56.58569336 55.87768555 56.58569336 54.63671875 54.58984375 C54.16862793 53.85435303 53.70053711 53.1188623 53.21826172 52.36108398 C52.71311035 51.56130127 52.20795898 50.76151855 51.6875 49.9375 C40.14778371 32.17393856 26.38073484 18.49060344 8.703125 6.82421875 C7.60484375 6.09847656 6.5065625 5.37273437 5.375 4.625 C4.35148437 3.95726562 3.32796875 3.28953125 2.2734375 2.6015625 C1.52320313 2.07304687 0.77296875 1.54453125 0 1 C0 0.67 0 0.34 0 0 Z " fill="#46C3E9" transform="translate(442,182)"/>
<path d="M0 0 C0.33 0.99 0.66 1.98 1 3 C12.55 3 24.1 3 36 3 C37.32 5.64 38.64 8.28 40 11 C40.66 11.99 41.32 12.98 42 14 C38.17475764 12.549046 36.80909034 10.61818068 35 7 C35 6.34 35 5.68 35 5 C30.39114891 5.04424619 25.78365575 5.11417349 21.17553711 5.20751953 C19.60924103 5.23567694 18.04280425 5.25691753 16.47631836 5.27099609 C14.21915934 5.29249967 11.96368261 5.33918189 9.70703125 5.390625 C9.01100296 5.39185364 8.31497467 5.39308228 7.59785461 5.39434814 C2.82151443 5.53698309 0.40943848 6.68582949 -3 10 C-2.01 6.7 -1.02 3.4 0 0 Z " fill="#8F6FCA" transform="translate(365,412)"/>
<path d="M0 0 C1.67542976 0.28604898 3.34385343 0.61781233 5 1 C5 2.98 5 4.96 5 7 C5.680625 6.649375 6.36125 6.29875 7.0625 5.9375 C10.75062687 4.76043823 13.25811936 5.13648908 17 6 C17.33 6.66 17.66 7.32 18 8 C17.41992188 7.97679687 16.83984375 7.95359375 16.2421875 7.9296875 C11.38588834 7.81749577 7.57067605 8.12485085 3 10 C3 7.03 3 4.06 3 1 C-1.78359679 5.38496373 -5.33750085 9.62125434 -6.625 16.1875 C-6.23814632 19.32447989 -6.23814632 19.32447989 -3 21.375 C-2.01 21.91125 -1.02 22.4475 0 23 C-3 24 -3 24 -5.625 23 C-8 21 -8 21 -8.890625 17.8046875 C-9.02189487 13.23837115 -7.63340694 10.74918661 -5.125 7.125 C-4.74730469 6.54492188 -4.36960937 5.96484375 -3.98046875 5.3671875 C-1.32966624 1.32966624 -1.32966624 1.32966624 0 0 Z " fill="#3EB2E9" transform="translate(444,229)"/>
<path d="M0 0 C4.46388134 1.17247516 6.82808809 3.32405562 9.953125 6.53515625 C15.52156467 11.98057699 21.25390818 16.5784003 27.703125 20.97265625 C26.713125 21.46765625 26.713125 21.46765625 25.703125 21.97265625 C18.87405215 17.28102943 12.71078536 12.42154866 6.94042969 6.47924805 C4.43156356 4.02629825 3.02167544 3.01300856 -0.50390625 2.56640625 C-3.61190476 3.01847876 -5.01281481 3.864293 -7.296875 5.97265625 C-6.984375 4.09765625 -6.984375 4.09765625 -6.296875 1.97265625 C-3.296875 -0.02734375 -3.296875 -0.02734375 0 0 Z " fill="#4382CE" transform="translate(338.296875,263.02734375)"/>
<path d="M0 0 C0.99 0.33 1.98 0.66 3 1 C-2.69056239 5.80432726 -8.05327337 10.19693487 -15 13 C-15.99 12.67 -16.98 12.34 -18 12 C-16.21118264 10.99491199 -14.41885304 9.99607264 -12.625 9 C-11.62726563 8.443125 -10.62953125 7.88625 -9.6015625 7.3125 C-7 6 -7 6 -5 6 C-5 5.34 -5 4.68 -5 4 C-6.216875 4.33 -7.43375 4.66 -8.6875 5 C-11.87210604 5.80322213 -14.6972843 6.20641973 -18 6 C-18 5.34 -18 4.68 -18 4 C-16.86820312 3.79503906 -15.73640625 3.59007812 -14.5703125 3.37890625 C-13.08851239 3.10693028 -11.60674315 2.83478613 -10.125 2.5625 C-9.37863281 2.42779297 -8.63226563 2.29308594 -7.86328125 2.15429688 C-3.81466622 1.45463389 -3.81466622 1.45463389 0 0 Z " fill="#4679C3" transform="translate(439,324)"/>
<path d="M0 0 C1.65 0 3.3 0 5 0 C5.66 2.31 6.32 4.62 7 7 C8.134375 6.814375 9.26875 6.62875 10.4375 6.4375 C12.2009375 6.2209375 12.2009375 6.2209375 14 6 C15 7 15 7 15.375 9.3125 C15 12 15 12 12.875 14.125 C4.6373057 19.49740933 4.6373057 19.49740933 -1 19 C-1.33 18.34 -1.66 17.68 -2 17 C-1.41992188 16.90203125 -0.83984375 16.8040625 -0.2421875 16.703125 C5.05242492 15.68963483 8.85312513 14.50889412 13 11 C13 10.01 13 9.02 13 8 C10.23723823 8.52268466 7.6739124 9.10869587 5 10 C4.67 7.03 4.34 4.06 4 1 C2.68 1.33 1.36 1.66 0 2 C0 1.34 0 0.68 0 0 Z " fill="#3EB8EA" transform="translate(430,213)"/>
<path d="M0 0 C5.52449459 1.38954513 8.84318732 3.99810185 13 7.6875 C13.59039062 8.19216797 14.18078125 8.69683594 14.7890625 9.21679688 C18.93537052 12.82883393 22.52949387 16.73893673 26 21 C25.67 21.66 25.34 22.32 25 23 C24.55011719 22.45472656 24.10023438 21.90945313 23.63671875 21.34765625 C16.7539766 13.27871004 8.88028268 6.76018336 0 1 C0 0.67 0 0.34 0 0 Z " fill="#3A9FDD" transform="translate(404,248)"/>
<path d="M0 0 C0.66 0.33 1.32 0.66 2 1 C-4.27 7.27 -10.54 13.54 -17 20 C-17.66 19.67 -18.32 19.34 -19 19 C-6.51480638 5.18223235 -6.51480638 5.18223235 0 0 Z " fill="#458FE0" transform="translate(276,197)"/>
<path d="M0 0 C2.99723235 1.36599527 5.2906114 2.940006 7.75 5.125 C8.44351562 5.73988281 9.13703125 6.35476563 9.8515625 6.98828125 C12.02740856 9.02566438 14.07139056 11.15266938 16.125 13.3125 C19.18398538 16.43798506 21.60381655 18.12076331 26 19 C24.02 19.99 24.02 19.99 22 21 C18.66003513 18.00733236 15.32792815 15.0060397 12 12 C11.45504883 11.50838379 10.91009766 11.01676758 10.34863281 10.51025391 C8.68796748 9.00987888 7.03104439 7.50547235 5.375 6 C4.57594238 5.27913208 4.57594238 5.27913208 3.76074219 4.54370117 C2.48799483 3.38314445 1.24117727 2.19425991 0 1 C0 0.67 0 0.34 0 0 Z " fill="#378ACE" transform="translate(400,264)"/>
<path d="M0 0 C0.33 0.99 0.66 1.98 1 3 C0.51789063 3.36351562 0.03578125 3.72703125 -0.4609375 4.1015625 C-4.68163922 7.46089652 -6.54749805 9.67415953 -8 15 C-11.4352048 17.29013653 -12.985331 17.17842973 -17 17 C-17 16.67 -17 16.34 -17 16 C-14.69 15.34 -12.38 14.68 -10 14 C-8.98888907 10.95086772 -8.98888907 10.95086772 -10 8 C-9.16855469 7.51080078 -9.16855469 7.51080078 -8.3203125 7.01171875 C-7.23363281 6.35623047 -7.23363281 6.35623047 -6.125 5.6875 C-5.40570313 5.25824219 -4.68640625 4.82898438 -3.9453125 4.38671875 C-1.73153667 2.98247625 -1.73153667 2.98247625 0 0 Z " fill="#3FB1EA" transform="translate(462,237)"/>
<path d="M0 0 C5.63692759 0.38216458 8.95854694 0.73402177 13 5 C14.68571237 7.30845961 15.77629249 9.36432229 17 12 C16.6015625 14.21875 16.6015625 14.21875 16 16 C15.32845067 14.71086513 14.66291141 13.41859796 14 12.125 C13.62875 11.40570313 13.2575 10.68640625 12.875 9.9453125 C12 8 12 8 12 6 C8.15299368 3.91620491 4.09945571 2.50313376 0 1 C0 0.67 0 0.34 0 0 Z " fill="#41BAEB" transform="translate(399,204)"/>
<path d="M0 0 C-0.36504064 5.66442374 -1.0554321 10.00703705 -4 15 C-5.13643966 11.59068103 -4.86747764 10.99664544 -3.5625 7.8125 C-3.27503906 7.09707031 -2.98757813 6.38164062 -2.69140625 5.64453125 C-2.46324219 5.10183594 -2.23507812 4.55914062 -2 4 C-2.99 3.67 -3.98 3.34 -5 3 C-1.125 0 -1.125 0 0 0 Z " fill="#4DA1E0" transform="translate(462,285)"/>
<path d="M0 0 C-0.5775 0.25910156 -1.155 0.51820313 -1.75 0.78515625 C-4.17293811 2.09337457 -5.96428504 3.58865731 -8 5.4375 C-10.58061627 7.77114323 -13.18881369 9.94808499 -16 12 C-15.51315022 7.8430519 -13.42948892 6.28982843 -10.25 3.75 C-9.38890625 3.04359375 -8.5278125 2.3371875 -7.640625 1.609375 C-4.76382315 -0.1439421 -3.30018336 -0.35613489 0 0 Z " fill="#3085CC" transform="translate(399,263)"/>
<path d="M0 0 C4.29 0.33 8.58 0.66 13 1 C13.33 1.99 13.66 2.98 14 4 C9.02906176 3.58846263 4.55491614 3.20399168 0 1 C0 0.67 0 0.34 0 0 Z " fill="#3F7DCC" transform="translate(368,309)"/>
<path d="M0 0 C0 0.33 0 0.66 0 1 C-8.42857143 3.28571429 -8.42857143 3.28571429 -13 3 C-9.21656826 -0.94792877 -5.07874402 -0.29300446 0 0 Z " fill="#44B0E8" transform="translate(346,166)"/>
</svg>
